<?xml version="1.0" encoding="utf-8"?>
<!-- Generator: Adobe Illustrator 23.1.0, SVG Export Plug-In . SVG Version: 6.00 Build 0)  -->
<svg version="1.1" id="Layer_1" xmlns="http://www.w3.org/2000/svg" xmlns:xlink="http://www.w3.org/1999/xlink" x="0px" y="0px"
	 viewBox="0 0 1000 400" style="enable-background:new 0 0 1000 400;" xml:space="preserve">
<style type="text/css">
	.st0{fill:#484393;}
	.st1{fill:#00B0EB;}
</style>
<g>
	<g>
		<path class="st0" d="M227.5,224.6l-33.5,24l-73.7,52.7c-5.3,3.8-12.6,0-12.6-6.5V115.4c16.1-15.9,32.1-31.8,48.1-47.8
			c6.1-6.1,12-12.3,18-18.4c0.6-0.6,1.1-1.4,1.4-2.2c1-2.8,0.1-5.2-1.7-7.3c-1.9-2.3-4.3-3.9-6.8-5.3c-5.5-3-11.4-5-17.4-6.6
			c-6.7-1.8-13.5-3.1-20.4-4c-5.3-0.7-10.6-1.4-16-1.8c-5.8-0.4-11.7-0.6-17.6-0.7c-8.3-0.1-16.5-0.2-24.8,0.1
			c-8.4,0.3-16.8,1.2-25.1,2.5c-9.3,1.4-18.5,3.3-27.5,6.5C13.4,32.1,8.9,34,5,37c-1.9,1.4-3.7,3.1-4.5,5.4
			c-0.9,2.4-0.7,4.7,1.2,6.7c3.4,3.4,6.6,6.9,9.9,10.3c19,19.1,37.9,38.1,56.9,57.2v254c0,6.5,7.3,10.2,12.6,6.5l26.4-18.9
			l119.8-85.6l33.5-24l37.5-26.8c1.7-1.2,2.7-3.1,2.7-5.2v-32.3c0-5.2-5.9-8.2-10.1-5.2L227.5,224.6z M87.8,57.8
			c-8-0.3-15.9-0.3-23.9-0.8c-6.5-0.4-13-1.4-19.5-2.4c-5.1-0.7-10.2-1.8-15.1-3.7c-1.9-0.7-3.7-1.7-5.4-2.7
			c-0.9-0.5-1.5-1.4-2.2-2.2c-0.5-0.6-0.5-1.5-0.1-2.2c1.2-1.9,3.1-3,5-3.9c4.1-1.9,8.4-3,12.8-3.9c7.9-1.7,15.9-2.6,23.9-3.2
			c11.1-0.9,22.1-1.1,33.2-0.8c9.7,0.3,19.3,0.9,28.9,2.2c6.8,0.9,13.5,2,20,4.3c1.8,0.6,3.6,1.4,5.2,2.4c1.1,0.7,2,1.6,2.9,2.6
			c0.7,0.7,0.8,1.8,0.3,2.6c-1.1,1.6-2.6,2.7-4.3,3.6c-3.7,1.9-7.7,2.9-11.8,3.8c-7.4,1.6-14.8,2.6-22.3,3.3
			C106.3,57.6,97,57.6,87.8,57.8z"/>
		<path class="st1" d="M403.3,85.2l-34.3-58.8c-1.3-2.2-4.4-2.2-5.7,0l-34.3,58.8c-1.3,2.2,0.3,5,2.8,5h15.4v204.6
			c0,6.5-7.3,10.2-12.6,6.5l-29.5-21.1c-2.2-1.6-5.2-1.6-7.4,0l-22.5,16.2c-3.5,2.5-3.5,7.8,0,10.3l98.4,70.3
			c5.3,3.8,12.6,0,12.6-6.5V90.2h14.2C403,90.2,404.6,87.4,403.3,85.2z"/>
	</g>
	<g>
		<path class="st0" d="M486.8,148.1h50.3v19h-74v-115h23.7V148.1z"/>
		<path class="st0" d="M619.9,117.3h-45.5v30.8h53.4v19h-77.1v-115h76.9v19.2h-53.2v27.4h45.5V117.3z"/>
		<path class="st0" d="M706.6,143.4h-41.5l-7.9,23.7H632l42.8-115h22l43,115h-25.2L706.6,143.4z M671.5,124.2h28.7l-14.5-43
			L671.5,124.2z"/>
		<path class="st0" d="M750.5,167.1v-115h35.4c10.1,0,19.2,2.3,27.1,6.8c8,4.6,14.2,11,18.7,19.4c4.5,8.4,6.7,17.9,6.7,28.6v5.3
			c0,10.7-2.2,20.2-6.6,28.5c-4.4,8.3-10.6,14.8-18.6,19.3c-8,4.6-17,6.9-27.1,6.9H750.5z M774.2,71.3v76.8h11.5
			c9.3,0,16.3-3,21.2-9.1c4.9-6.1,7.4-14.7,7.5-26v-6.1c0-11.7-2.4-20.5-7.3-26.6c-4.8-6-11.9-9-21.2-9H774.2z"/>
		<path class="st0" d="M915.3,137c0-4.5-1.6-7.9-4.7-10.3c-3.2-2.4-8.8-4.9-17.1-7.6c-8.2-2.7-14.7-5.3-19.5-7.9
			c-13.1-7.1-19.6-16.6-19.6-28.5c0-6.2,1.7-11.8,5.3-16.6c3.5-4.9,8.5-8.7,15.1-11.4c6.6-2.7,13.9-4.1,22.1-4.1
			c8.2,0,15.5,1.5,22,4.5c6.4,3,11.4,7.2,15,12.6c3.6,5.4,5.3,11.6,5.3,18.5h-23.7c0-5.3-1.7-9.4-5-12.3c-3.3-2.9-8-4.4-14-4.4
			c-5.8,0-10.3,1.2-13.5,3.7c-3.2,2.4-4.8,5.7-4.8,9.7c0,3.7,1.9,6.9,5.6,9.4c3.8,2.5,9.3,4.9,16.6,7.1c13.5,4.1,23.3,9.1,29.5,15.1
			c6.2,6,9.2,13.5,9.2,22.4c0,10-3.8,17.8-11.3,23.4c-7.5,5.7-17.7,8.5-30.4,8.5c-8.8,0-16.9-1.6-24.2-4.9
			c-7.3-3.2-12.8-7.7-16.6-13.3c-3.8-5.6-5.7-12.2-5.7-19.6h23.8c0,12.7,7.6,19,22.7,19c5.6,0,10-1.1,13.2-3.4
			C913.7,144.3,915.3,141.1,915.3,137z"/>
		<path class="st1" d="M552.7,328l15.5-81.8h23.6l-25.5,115h-23.9l-18.7-76.9L505,361.2h-23.9l-25.5-115h23.6l15.6,81.7l19-81.7
			h20.1L552.7,328z"/>
		<path class="st1" d="M666.1,337.5h-41.5l-7.9,23.7h-25.2l42.8-115h22l43,115h-25.2L666.1,337.5z M630.9,318.3h28.7l-14.5-43
			L630.9,318.3z"/>
		<path class="st1" d="M787.1,265.4h-35.2v95.8h-23.7v-95.8h-34.7v-19.2h93.7V265.4z"/>
		<path class="st1" d="M890.9,322.9c-0.9,12.4-5.5,22.1-13.7,29.2c-8.2,7.1-19.1,10.7-32.6,10.7c-14.7,0-26.3-5-34.8-14.9
			c-8.5-9.9-12.7-23.5-12.7-40.9v-7c0-11.1,1.9-20.8,5.8-29.2c3.9-8.4,9.5-14.9,16.7-19.4c7.2-4.5,15.6-6.8,25.2-6.8
			c13.3,0,24,3.6,32.1,10.7c8.1,7.1,12.8,17.1,14.1,29.9h-23.7c-0.6-7.4-2.6-12.8-6.2-16.2c-3.6-3.3-9-5-16.2-5
			c-7.9,0-13.8,2.8-17.7,8.5c-3.9,5.7-5.9,14.4-6,26.3v8.7c0,12.4,1.9,21.5,5.6,27.2c3.8,5.7,9.7,8.6,17.8,8.6
			c7.3,0,12.8-1.7,16.4-5c3.6-3.3,5.7-8.5,6.2-15.5H890.9z"/>
		<path class="st1" d="M1000,361.2h-23.7v-49.3h-46.2v49.3h-23.7v-115h23.7v46.6h46.2v-46.6h23.7V361.2z"/>
	</g>
</g>
</svg>
